
        <svg xmlns="http://www.w3.org/2000/svg" xmlns:xlink="http://www.w3.org/1999/xlink" version="1.1" width="3162.174900381336" height="958.19047133158" viewBox="0 0 3162.174900381336 958.19047133158">
			
			<g transform="scale(8.108745019066799) translate(10, 10)">
				<defs id="SvgjsDefs1478"/><g id="SvgjsG1479" featureKey="symbolFeature-0" transform="matrix(1.2485417721646976,0,0,1.2485417721646976,-7.408437734956845,-11.626749753923898)" fill="#fff"> <path xmlns="http://www.w3.org/2000/svg" d="m30.25 31.805c3.0781-11.117 13.039-19.289 25.008-19.289 15.477 0 26.617 13.758 25.852 28.195-0.015625 0.29687 0.17969 0.71875 0.63281 0.9375 5.9141 2.8828 9.9141 9.0078 9.9141 16.062 0 5.7344-2.6328 10.781-6.7031 14.078l-0.023437 0.023438c-1.3359 1.0547-2.8359 1.9219-4.4453 2.5547-1.6875 0.66406-3.3359-0.71875-3.3359-2.5312 0-1.625 0.007812-3.2422 0.007812-4.8516 0-2.7188 0.015625-5.4219 0.015625-8.1406 0-5.7188-3.3906-10.891-8.6328-13.18l-12.797-5.5781c-3.6641-1.6016-7.8281-1.6016-11.492 0l-12.805 5.5781c-5.2344 2.2891-8.625 7.4609-8.625 13.18v11.586c0 1.9922-1.9688 3.3906-3.6953 2.3828-0.30469-0.17969-0.60156-0.36719-0.89844-0.5625-5.9453-3.8125-9.8906-10.57-9.8906-18.234 0-11.633 9.5234-21.422 20.961-21.539 0.48438 0 0.86719-0.34375 0.95312-0.67187zm16.164 13.242c2.2812-0.99219 4.8828-0.99219 7.1641 0l12.797 5.5859c0.91406 0.39844 1.7422 0.9375 2.4531 1.5859 0.41406 0.375 0.26562 1.0312-0.25 1.25l-16.312 7.2031c-1.4453 0.64062-3.0938 0.64062-4.5391 0l-16.312-7.2031c-0.51562-0.21875-0.66406-0.875-0.25-1.25 0.71094-0.64844 1.5391-1.1875 2.4531-1.5859zm-0.0625 20.906c-0.27344-0.10156-0.54687-0.20312-0.8125-0.32812l-15.508-6.8438c-0.82812-0.35938-1.7578 0.24219-1.7578 1.1484 0 2.125 0 4.25-0.015626 6.3672-0.015624 2.7344-0.023437 5.4531-0.023437 8.1484 0 3.5703 2.125 6.8047 5.3984 8.2266 3.9297 1.6953 7.9062 3.4844 11.938 5.1562 0.82031 0.33594 1.7188-0.26562 1.7188-1.1562v-19.469c0-0.57031-0.39062-1.0625-0.9375-1.25zm25.367-6.0234c0-0.90625-0.92969-1.5078-1.7578-1.1484l-15.508 6.8438c-0.26562 0.125-0.53906 0.22656-0.82031 0.32812-0.53906 0.1875-0.92969 0.67969-0.92969 1.25v19.492c0 0.88281 0.88281 1.4844 1.7031 1.1484 3.9609-1.6094 8.0234-3.4766 11.953-5.1719 3.2734-1.4219 5.3984-4.6562 5.3984-8.2266 0-4.75-0.03125-9.875-0.039062-14.516z" fill-rule="evenodd"/></g><g id="SvgjsG1480" featureKey="nameFeature-0" transform="matrix(1.9771630099225992,0,0,1.9771630099225992,121.39014495889204,-6.335810688786754)" fill="#fff"><path d="M10.88 40.4 c-2.56 0 -4.96 -1 -6.76 -2.76 l-0.04 -0.04 c-1.76 -1.8 -2.76 -4.2 -2.76 -6.76 s1 -5 2.76 -6.8 c1.8 -1.76 4.2 -2.76 6.8 -2.76 c2.64 0 5.04 0.96 6.76 2.76 c0.4 0.4 0.72 0.76 1 1.12 l0.48 0.72 l-3.92 2.92 l-0.56 -0.76 c-0.96 -1.28 -2.36 -2.08 -3.76 -2.08 c-2.52 0 -4.68 2.24 -4.68 4.88 s2.16 4.88 4.68 4.88 c1.4 0 2.8 -0.8 3.76 -2.16 l0.52 -0.72 l4.08 2.92 l-0.6 0.76 c-0.08 0.12 -0.2 0.24 -0.32 0.36 c-0.2 0.24 -0.44 0.52 -0.68 0.76 c-1.76 1.76 -4.16 2.76 -6.76 2.76 z M37.620999999999995 40 l-4.8 0 c-1.76 0 -3.4 -0.68 -4.6 -1.88 c-1.24 -1.24 -1.88 -2.84 -1.88 -4.6 l0 -7.6 l-2.56 0 l0 -4.12 l2.56 0 l0 -7.2 l4.76 0 l0 7.2 l5.32 0 l0 4.12 l-5.32 0 l0 7.52 c0 1 0.88 1.92 1.76 1.92 l3.48 0 z M60.721999999999994 40 l-5.04 0 l0 -9.8 c0 -2.16 -1.72 -3.84 -3.88 -3.84 c-2.08 0 -3.88 1.72 -3.88 3.84 l0 9.8 l-5 0 l0 -18.32 l5 0 l0 1.32 c1.24 -1.24 2.56 -1.68 3.88 -1.68 c2.4 0 4.64 0.92 6.32 2.56 c1.68 1.72 2.6 3.96 2.6 6.32 l0 9.8 z M72.623 40 l-5.04 0 l0 -18.32 l5.04 0 l0 1.48 c1.44 -1.44 3.6 -1.92 5.04 -1.92 l1.2 0 l-1.2 5 l-0.76 0 c-2.36 0 -4.28 1.84 -4.28 4.04 l0 9.72 z M84.484 40.4 c-1.76 0 -3.16 -1.4 -3.16 -3.12 c0 -0.84 0.32 -1.64 0.92 -2.2 c0.6 -0.6 1.4 -0.92 2.24 -0.92 c1.72 0 3.12 1.4 3.12 3.12 s-1.4 3.12 -3.12 3.12 z M99.70499999999998 40 l-5.2 0 l0 -18.32 l5.2 0 l0 18.32 z M97.10499999999999 19.48 c-1.72 0 -3.12 -1.4 -3.12 -3.08 c0 -0.84 0.32 -1.6 0.92 -2.16 c0.6 -0.6 1.36 -0.92 2.2 -0.92 c1.68 0 3.08 1.4 3.08 3.08 s-1.4 3.08 -3.08 3.08 z M116.12599999999999 40.44 c-2.48 0 -4.92 -1 -6.8 -2.8 c-1.8 -1.88 -2.8 -4.32 -2.8 -6.8 c0 -2.52 1 -4.96 2.8 -6.8 c1.84 -1.76 4.24 -2.76 6.8 -2.76 c2.64 0 5.04 1 6.76 2.76 c1.84 1.84 2.84 4.24 2.84 6.8 s-1 4.96 -2.84 6.8 c-1.8 1.8 -4.2 2.8 -6.76 2.8 z M116.12599999999999 25.84 c-2.68 0 -4.88 2.24 -4.88 5 s2.2 5 4.88 5 c2.72 0 4.92 -2.24 4.92 -5 s-2.2 -5 -4.92 -5 z"/></g>
			</g>
		</svg>
	